<svg xmlns="http://www.w3.org/2000/svg" width="32" height="32" viewBox="0 0 24 24" fill="none" stroke="currentColor" stroke-width="1.75" stroke-linecap="round" stroke-linejoin="round">
  <circle cx="10" cy="8" r="5"></circle>
  <path d="M5.7 6.8 C6.5 4.5 8.1 3.3 10.1 3.3 C12.1 3.3 13.6 4.5 14.3 6.8 C12 6.2 8 6.2 5.7 6.8Z" fill="currentColor" stroke="none"></path>
  <path d="M5.7 6.8 C8 6.2 12 6.2 14.3 6.8"></path>
  <path d="M14 6.8 C15.1 6.8 16 7.1 16.8 7.6 C15.7 7.9 14.7 7.9 13.8 7.5"></path>
  <path d="M2 21a8 8 0 0 1 10.434-7.62"></path>
  <path d="M14.5 14 H20 V19 a1.5 1.5 0 0 1 -1.5 1.5 H16 a1.5 1.5 0 0 1 -1.5 -1.5 Z"></path>
  <path d="M20 15.5 a1.4 1.4 0 0 1 0 3"></path>
  <path d="M16.6 13 V11.5 M19 13 V12"></path>
</svg>