<?xml version="1.0" encoding="UTF-8" standalone="no"?><!DOCTYPE svg PUBLIC "-//W3C//DTD SVG 1.1//EN" "http://www.w3.org/Graphics/SVG/1.1/DTD/svg11.dtd"><svg width="100%" height="100%" viewBox="0 0 145 204" version="1.1" xmlns="http://www.w3.org/2000/svg" xmlns:xlink="http://www.w3.org/1999/xlink" xml:space="preserve" xmlns:serif="http://www.serif.com/" style="fill-rule:evenodd;clip-rule:evenodd;stroke-linejoin:round;stroke-miterlimit:2;"><path d="M0,84.584c0.511,-1.296 1.583,-2.341 2.981,-2.785l6.304,-2.005c1.744,-0.556 3.015,-2.066 3.266,-3.881l4.016,-29.204l37.7,37.875l-54.267,0Zm24.144,-52.865l19.206,-2.58c2.841,-0.382 4.698,-3.164 3.964,-5.928l-4.573,-17.241c-0.8,-3.015 1.474,-5.97 4.597,-5.97l10.154,-0c1.415,-0 2.752,0.621 3.654,1.707l4.369,5.241l-0,66.335l-41.371,-41.564Zm57.279,-8.282c0.601,0.008 1.21,-0.099 1.794,-0.328l20.853,-8.165l0.023,-0.009c1.624,-0.627 3.458,-0.388 4.866,0.64l18.231,13.316c-1.344,0.341 -2.617,1.039 -3.667,2.095l-42.1,42.297l-0,-49.846Zm53.107,19.093l10.115,42.054l-51.974,0l41.859,-42.054Zm9.07,58.037l-36.862,22.102c-1.952,1.176 -2.8,3.57 -2.018,5.714l5.045,13.772c0.268,0.746 0.722,1.409 1.319,1.934l19.522,17.194c2.107,1.856 2.155,5.128 0.095,7.044l-10.596,9.862c-1.439,1.338 -1.905,3.421 -1.176,5.242l2.447,6.125c1.111,2.776 -0.585,5.874 -3.522,6.436l-41.539,7.91c-0.985,0.185 -2.005,0.059 -2.913,-0.37l-17.056,-8.03c-0.83,-0.394 -1.755,-0.537 -2.662,-0.412l-25.593,3.463c-3.439,0.465 -6.203,-2.8 -5.176,-6.119l9.175,-29.617c0.83,-2.687 -0.835,-5.504 -3.593,-6.066l-20.095,-4.095c-2.078,-0.424 -3.624,-2.167 -3.791,-4.28l-3.818,-47.809l142.807,0Z" style="fill:#2d6a4f;"/></svg>