<svg xmlns="http://www.w3.org/2000/svg" width="512" height="512" viewBox="0 0 512 512" role="img">
  <rect width="512" height="512" fill="#0f1318"/>
  <path d="M173.00,425.00 L171.00,427.00 L163.00,427.00 L161.00,428.00 L155.00,435.00 L139.00,435.00 L136.00,439.00 L123.00,439.00 L122.00,442.00 L124.00,439.00 L136.00,439.00 L139.00,435.00 L156.00,435.00 L162.00,428.00 L164.00,427.00 L172.00,427.00 Z" fill="#6f8cff"/>
  <path d="M61.00,416.00 L64.00,417.00 L65.00,423.00 L66.00,423.00 L73.00,431.00 L78.00,431.00 L81.00,435.00 L86.00,435.00 L89.00,439.00 L98.00,439.00 L99.00,442.00 L98.00,439.00 L90.00,439.00 L86.00,435.00 L81.00,435.00 L79.00,431.00 L74.00,431.00 L64.00,421.00 L64.00,416.00 Z" fill="#6f8cff"/>
  <path d="M221.00,392.00 L219.00,395.00 L216.00,397.00 L213.00,392.00 L211.00,393.00 L211.00,395.00 L214.00,396.00 L215.00,399.00 L213.00,400.00 L206.00,408.00 L200.00,408.00 L200.00,409.00 L201.00,408.00 L206.00,408.00 Z" fill="#6f8cff"/>
  <path d="M254.00,366.00 L254.00,368.00 L248.00,373.00 L244.00,373.00 L243.00,374.00 L243.00,381.00 L240.00,385.00 L236.00,385.00 L233.00,381.00 L231.00,381.00 L227.00,386.00 L230.00,384.00 L232.00,381.00 L233.00,381.00 L236.00,385.00 L241.00,385.00 L241.00,384.00 L246.00,380.00 L245.00,375.00 L247.00,373.00 L249.00,373.00 L250.00,371.00 L254.00,368.00 Z" fill="#6f8cff"/>
  <path d="M273.00,335.00 L273.00,338.00 L275.00,338.00 L276.00,335.00 Z" fill="#6f8cff"/>
  <path d="M319.00,304.00 L317.00,304.00 L315.00,302.00 L317.00,306.00 L314.00,308.00 L312.00,308.00 L308.00,315.00 L308.00,317.00 L306.00,319.00 L298.00,319.00 L296.00,320.00 L296.00,326.00 L295.00,327.00 L290.00,327.00 L288.00,330.00 L281.00,336.00 L281.00,340.00 L275.00,346.00 L271.00,346.00 L265.00,352.00 L265.00,357.00 L264.00,358.00 L258.00,358.00 L254.00,363.00 L257.00,361.00 L259.00,358.00 L264.00,358.00 L265.00,357.00 L265.00,352.00 L268.00,350.00 L271.00,346.00 L276.00,346.00 L277.00,344.00 L281.00,341.00 L281.00,336.00 L284.00,334.00 L290.00,327.00 L295.00,327.00 L296.00,326.00 L296.00,321.00 L298.00,319.00 L307.00,319.00 L307.00,318.00 L311.00,315.00 L311.00,310.00 L313.00,308.00 L318.00,308.00 L320.00,306.00 Z" fill="#6f8cff"/>
  <path d="M303.00,296.00 L300.00,297.00 L301.00,300.00 L304.00,298.00 Z" fill="#6f8cff"/>
  <path d="M163.00,284.00 L170.00,284.00 L167.00,281.00 Z" fill="#6f8cff"/>
  <path d="M131.00,270.00 L130.00,271.00 L130.00,275.00 L133.00,276.00 L134.00,275.00 L134.00,271.00 Z" fill="#6f8cff"/>
  <path d="M332.00,265.00 L331.00,268.00 L333.00,269.00 L334.00,266.00 Z" fill="#6f8cff"/>
  <path d="M156.00,265.00 L153.00,267.00 L154.00,269.00 L157.00,268.00 Z" fill="#6f8cff"/>
  <path d="M252.00,261.00 L249.00,263.00 L250.00,266.00 L254.00,265.00 L254.00,263.00 Z" fill="#6f8cff"/>
  <path d="M248.00,258.00 L246.00,257.00 L244.00,258.00 L237.00,258.00 L235.00,259.00 L235.00,261.00 L233.00,263.00 L228.00,261.00 L221.00,261.00 L219.00,263.00 L223.00,267.00 L222.00,269.00 L217.00,269.00 L213.00,265.00 L209.00,265.00 L196.00,279.00 L209.00,265.00 L213.00,265.00 L216.00,269.00 L222.00,269.00 L223.00,268.00 L222.00,265.00 L223.00,262.00 L229.00,262.00 L231.00,265.00 L242.00,265.00 L242.00,259.00 L243.00,258.00 Z" fill="#6f8cff"/>
  <path d="M347.00,254.00 L347.00,255.00 L339.00,262.00 L339.00,270.00 L339.00,263.00 L347.00,256.00 Z" fill="#6f8cff"/>
  <path d="M250.00,250.00 L250.00,252.00 L252.00,253.00 L253.00,250.00 Z" fill="#6f8cff"/>
  <path d="M447.00,318.00 L431.00,300.00 L425.00,300.00 L423.00,297.00 L397.00,272.00 L396.00,269.00 L390.00,269.00 L389.00,267.00 L373.00,252.00 L369.00,246.00 L366.00,246.00 L366.00,247.00 L362.00,250.00 L362.00,255.00 L354.00,262.00 L354.00,265.00 L356.00,265.00 L358.00,268.00 L354.00,270.00 L354.00,275.00 L350.00,278.00 L350.00,291.00 L348.00,292.00 L345.00,296.00 L342.00,297.00 L343.00,305.00 L340.00,308.00 L339.00,307.00 L336.00,307.00 L335.00,304.00 L332.00,303.00 L331.00,304.00 L331.00,307.00 L335.00,310.00 L333.00,312.00 L331.00,311.00 L327.00,312.00 L327.00,318.00 L324.00,319.00 L323.00,321.00 L319.00,324.00 L319.00,333.00 L316.00,335.00 L316.00,337.00 L314.00,339.00 L311.00,335.00 L307.00,335.00 L308.00,340.00 L304.00,343.00 L302.00,346.00 L297.00,346.00 L297.00,347.00 L292.00,351.00 L292.00,356.00 L290.00,358.00 L286.00,357.00 L284.00,359.00 L284.00,362.00 L285.00,363.00 L283.00,365.00 L277.00,365.00 L277.00,369.00 L283.00,370.00 L286.00,365.00 L298.00,366.00 L302.00,361.00 L304.00,362.00 L310.00,362.00 L313.00,358.00 L330.00,358.00 L332.00,354.00 L341.00,354.00 L344.00,350.00 L353.00,350.00 L356.00,346.00 L369.00,346.00 L369.00,344.00 L371.00,342.00 L383.00,343.00 L387.00,338.00 L395.00,339.00 L398.00,335.00 L410.00,335.00 L413.00,331.00 L422.00,331.00 L425.00,327.00 L438.00,327.00 L440.00,323.00 L445.00,323.00 L447.00,320.00 Z" fill="#6f8cff"/>
  <path d="M173.00,246.00 L173.00,249.00 L176.00,249.00 L176.00,247.00 Z" fill="#6f8cff"/>
  <path d="M257.00,245.00 L255.00,247.00 L255.00,249.00 L261.00,254.00 L261.00,257.00 L260.00,258.00 L254.00,257.00 L256.00,258.00 L261.00,258.00 L262.00,255.00 L257.00,251.00 L258.00,249.00 L258.00,246.00 Z" fill="#6f8cff"/>
  <path d="M223.00,243.00 L224.00,246.00 L229.00,246.00 L230.00,245.00 L229.00,242.00 L224.00,242.00 Z" fill="#6f8cff"/>
  <path d="M304.00,236.00 L303.00,239.00 L298.00,242.00 L294.00,246.00 L292.00,246.00 L292.00,252.00 L290.00,254.00 L289.00,253.00 L286.00,253.00 L282.00,258.00 L283.00,257.00 L287.00,261.00 L288.00,260.00 L288.00,257.00 L287.00,256.00 L292.00,253.00 L292.00,247.00 L298.00,242.00 L302.00,241.00 L304.00,239.00 Z" fill="#6f8cff"/>
  <path d="M286.00,234.00 L283.00,238.00 L275.00,238.00 L273.00,239.00 L273.00,244.00 L271.00,246.00 L267.00,246.00 L265.00,243.00 L263.00,242.00 L259.00,242.00 L258.00,243.00 L259.00,242.00 L263.00,242.00 L265.00,245.00 L267.00,246.00 L272.00,246.00 L273.00,245.00 L273.00,240.00 L275.00,238.00 L283.00,238.00 Z" fill="#6f8cff"/>
  <path d="M289.00,237.00 L294.00,239.00 L295.00,238.00 L298.00,238.00 L300.00,235.00 L302.00,234.00 L297.00,236.00 L296.00,235.00 L296.00,232.00 L293.00,231.00 L292.00,233.00 L294.00,236.00 L292.00,238.00 Z" fill="#6f8cff"/>
  <path d="M138.00,231.00 L138.00,234.00 L141.00,234.00 L141.00,231.00 Z" fill="#6f8cff"/>
  <path d="M258.00,227.00 L258.00,230.00 L261.00,230.00 L261.00,227.00 Z" fill="#6f8cff"/>
  <path d="M227.00,227.00 L227.00,230.00 L230.00,230.00 L230.00,227.00 Z" fill="#6f8cff"/>
  <path d="M289.00,223.00 L289.00,226.00 L291.00,226.00 L292.00,224.00 Z" fill="#6f8cff"/>
  <path d="M242.00,220.00 L242.00,224.00 L244.00,226.00 L248.00,226.00 L249.00,225.00 L244.00,219.00 Z" fill="#6f8cff"/>
  <path d="M201.00,219.00 L196.00,223.00 L196.00,229.00 L195.00,230.00 L192.00,229.00 L192.00,230.00 L195.00,230.00 L196.00,229.00 L196.00,224.00 L198.00,223.00 Z" fill="#6f8cff"/>
  <path d="M187.00,219.00 L185.00,219.00 L184.00,222.00 L186.00,223.00 L187.00,222.00 Z" fill="#6f8cff"/>
  <path d="M282.00,215.00 L281.00,218.00 L283.00,219.00 L284.00,216.00 Z" fill="#6f8cff"/>
  <path d="M270.00,211.00 L266.00,213.00 L266.00,218.00 L268.00,219.00 L272.00,218.00 L273.00,216.00 L272.00,212.00 Z" fill="#6f8cff"/>
  <path d="M173.00,208.00 L173.00,211.00 L175.00,211.00 L176.00,208.00 Z" fill="#6f8cff"/>
  <path d="M203.00,202.00 L197.00,209.00 L196.00,213.00 L197.00,211.00 L200.00,210.00 L200.00,205.00 L202.00,204.00 Z" fill="#6f8cff"/>
  <path d="M173.00,192.00 L173.00,195.00 L174.00,196.00 L176.00,195.00 L176.00,193.00 Z" fill="#6f8cff"/>
  <path d="M231.00,176.00 L230.00,179.00 L232.00,181.00 L234.00,181.00 L235.00,180.00 L234.00,176.00 Z" fill="#6f8cff"/>
  <path d="M211.00,176.00 L208.00,177.00 L208.00,179.00 L215.00,185.00 L215.00,187.00 L213.00,188.00 L203.00,199.00 L213.00,188.00 L215.00,188.00 L215.00,185.00 L210.00,181.00 Z" fill="#6f8cff"/>
  <path d="M238.00,166.00 L238.00,169.00 L237.00,170.00 L228.00,169.00 L225.00,172.00 L226.00,172.00 L228.00,169.00 L232.00,169.00 L237.00,173.00 L239.00,171.00 Z" fill="#6f8cff"/>
  <path d="M255.00,164.00 L253.00,167.00 L254.00,169.00 L257.00,169.00 L258.00,168.00 L258.00,165.00 Z" fill="#6f8cff"/>
  <path d="M342.00,192.00 L338.00,192.00 L337.00,191.00 L336.00,192.00 L332.00,192.00 L331.00,191.00 L331.00,185.00 L330.00,184.00 L317.00,184.00 L314.00,180.00 L305.00,180.00 L302.00,184.00 L298.00,185.00 L296.00,183.00 L296.00,181.00 L294.00,180.00 L287.00,172.00 L283.00,173.00 L272.00,161.00 L266.00,161.00 L265.00,162.00 L265.00,167.00 L262.00,169.00 L259.00,173.00 L251.00,173.00 L250.00,172.00 L246.00,173.00 L245.00,178.00 L248.00,180.00 L250.00,183.00 L248.00,185.00 L247.00,184.00 L243.00,184.00 L240.00,188.00 L235.00,188.00 L234.00,189.00 L234.00,194.00 L235.00,195.00 L235.00,198.00 L232.00,200.00 L229.00,196.00 L219.00,196.00 L219.00,199.00 L223.00,202.00 L223.00,205.00 L221.00,207.00 L216.00,207.00 L215.00,209.00 L211.00,212.00 L210.00,215.00 L204.00,215.00 L203.00,218.00 L205.00,215.00 L210.00,215.00 L212.00,218.00 L216.00,219.00 L221.00,214.00 L228.00,215.00 L230.00,214.00 L229.00,209.00 L231.00,207.00 L233.00,207.00 L235.00,210.00 L237.00,211.00 L239.00,207.00 L244.00,207.00 L247.00,203.00 L252.00,207.00 L259.00,199.00 L267.00,199.00 L270.00,203.00 L272.00,203.00 L273.00,202.00 L272.00,198.00 L276.00,195.00 L279.00,191.00 L282.00,191.00 L285.00,194.00 L285.00,199.00 L287.00,199.00 L288.00,198.00 L288.00,189.00 L291.00,187.00 L297.00,188.00 L306.00,180.00 L314.00,180.00 L317.00,184.00 L329.00,184.00 L331.00,186.00 L331.00,191.00 L332.00,192.00 L341.00,192.00 L342.00,193.00 Z" fill="#6f8cff"/>
  <path d="M189.00,161.00 L188.00,163.00 L189.00,165.00 L191.00,165.00 L192.00,162.00 Z" fill="#6f8cff"/>
  <path d="M234.00,158.00 L234.00,160.00 L238.00,163.00 L240.00,161.00 L242.00,161.00 L243.00,158.00 L241.00,159.00 L238.00,157.00 L235.00,157.00 Z" fill="#6f8cff"/>
  <path d="M227.00,154.00 L227.00,157.00 L229.00,157.00 L230.00,154.00 Z" fill="#6f8cff"/>
  <path d="M257.00,148.00 L256.00,149.00 L258.00,153.00 L260.00,154.00 L262.00,151.00 Z" fill="#6f8cff"/>
  <path d="M249.00,146.00 L247.00,146.00 L246.00,148.00 L243.00,150.00 L244.00,153.00 L247.00,153.00 L249.00,151.00 L250.00,148.00 Z" fill="#6f8cff"/>
  <path d="M200.00,146.00 L200.00,149.00 L203.00,149.00 L203.00,146.00 Z" fill="#6f8cff"/>
  <path d="M275.00,130.00 L269.00,131.00 L269.00,137.00 L260.00,145.00 L269.00,137.00 L269.00,132.00 L271.00,130.00 Z" fill="#6f8cff"/>
  <path d="M220.00,123.00 L219.00,125.00 L223.00,128.00 L223.00,132.00 L225.00,134.00 L228.00,134.00 L229.00,131.00 L223.00,126.00 L222.00,123.00 Z" fill="#6f8cff"/>
  <path d="M234.00,115.00 L232.00,115.00 L228.00,119.00 L228.00,122.00 L231.00,123.00 L236.00,119.00 L233.00,122.00 L230.00,121.00 L230.00,117.00 L232.00,115.00 Z" fill="#6f8cff"/>
  <path d="M253.00,107.00 L250.00,108.00 L252.00,107.00 L254.00,109.00 L254.00,112.00 L250.00,116.00 L250.00,118.00 L251.00,119.00 L256.00,119.00 L257.00,121.00 L251.00,126.00 L248.00,122.00 L246.00,122.00 L248.00,122.00 L249.00,124.00 L252.00,126.00 L259.00,119.00 L264.00,119.00 L265.00,118.00 L264.00,115.00 L265.00,116.00 L264.00,119.00 L259.00,119.00 L258.00,118.00 L259.00,115.00 L261.00,115.00 L259.00,115.00 L255.00,119.00 L251.00,119.00 L250.00,116.00 L254.00,112.00 Z" fill="#6f8cff"/>
  <path d="M277.00,98.00 L277.00,106.00 L275.00,108.00 L274.00,108.00 L273.00,106.00 L273.00,109.00 L275.00,110.00 L276.00,112.00 L277.00,111.00 L280.00,111.00 L281.00,112.00 L280.00,115.00 L277.00,114.00 L278.00,115.00 L281.00,114.00 L281.00,112.00 L276.00,108.00 L277.00,106.00 Z" fill="#6f8cff"/>
  <path d="M285.00,84.00 L284.00,93.00 L286.00,95.00 L288.00,93.00 L288.00,90.00 L286.00,93.00 L284.00,91.00 Z" fill="#6f8cff"/>
  <path d="M294.00,80.00 L302.00,80.00 L304.00,82.00 L304.00,87.00 L308.00,90.00 L308.00,93.00 L306.00,95.00 L307.00,95.00 L308.00,89.00 L304.00,86.00 L303.00,80.00 Z" fill="#6f8cff"/>
  <path d="M280.00,77.00 L279.00,76.00 L274.00,76.00 L271.00,80.00 L266.00,80.00 L263.00,84.00 L254.00,84.00 L253.00,85.00 L253.00,90.00 L251.00,91.00 L249.00,94.00 L253.00,91.00 L253.00,86.00 L255.00,84.00 L264.00,84.00 L265.00,85.00 L265.00,90.00 L268.00,91.00 L269.00,89.00 L268.00,91.00 L265.00,90.00 L265.00,85.00 L267.00,84.00 L265.00,83.00 L265.00,81.00 L266.00,80.00 L272.00,80.00 L275.00,76.00 L279.00,76.00 Z" fill="#6f8cff"/>
  <path d="M250.00,96.00 L240.00,107.00 L231.00,107.00 L225.00,114.00 L221.00,115.00 L198.00,91.00 L194.00,92.00 L191.00,88.00 L188.00,86.00 L188.00,81.00 L187.00,80.00 L182.00,80.00 L175.00,72.00 L168.00,78.00 L169.00,85.00 L168.00,87.00 L165.00,88.00 L164.00,90.00 L165.00,101.00 L162.00,103.00 L160.00,106.00 L161.00,108.00 L161.00,113.00 L159.00,115.00 L157.00,115.00 L157.00,129.00 L153.00,131.00 L153.00,140.00 L149.00,143.00 L149.00,152.00 L145.00,155.00 L145.00,163.00 L146.00,166.00 L144.00,169.00 L141.00,170.00 L142.00,178.00 L137.00,182.00 L138.00,186.00 L134.00,189.00 L134.00,206.00 L130.00,208.00 L130.00,214.00 L126.00,216.00 L126.00,229.00 L122.00,231.00 L122.00,241.00 L118.00,243.00 L118.00,246.00 L120.00,249.00 L119.00,255.00 L114.00,259.00 L115.00,263.00 L110.00,267.00 L111.00,275.00 L109.00,277.00 L107.00,277.00 L106.00,279.00 L107.00,286.00 L103.00,289.00 L103.00,302.00 L101.00,304.00 L99.00,304.00 L99.00,318.00 L95.00,320.00 L95.00,326.00 L91.00,328.00 L91.00,334.00 L92.00,336.00 L87.00,340.00 L87.00,349.00 L88.00,352.00 L83.00,355.00 L84.00,367.00 L80.00,370.00 L80.00,379.00 L78.00,381.00 L76.00,381.00 L77.00,387.00 L75.00,388.00 L75.00,389.00 L78.00,388.00 L81.00,384.00 L98.00,384.00 L100.00,388.00 L129.00,388.00 L131.00,384.00 L137.00,384.00 L139.00,380.00 L144.00,380.00 L147.00,376.00 L155.00,377.00 L159.00,372.00 L167.00,373.00 L174.00,365.00 L178.00,365.00 L181.00,361.00 L187.00,361.00 L188.00,358.00 L191.00,356.00 L191.00,351.00 L195.00,349.00 L201.00,342.00 L207.00,342.00 L208.00,341.00 L213.00,342.00 L215.00,339.00 L219.00,336.00 L218.00,329.00 L225.00,322.00 L228.00,323.00 L234.00,317.00 L233.00,312.00 L235.00,310.00 L241.00,315.00 L242.00,314.00 L241.00,309.00 L245.00,306.00 L245.00,301.00 L247.00,299.00 L249.00,299.00 L251.00,301.00 L250.00,306.00 L253.00,307.00 L257.00,302.00 L257.00,297.00 L261.00,294.00 L261.00,289.00 L263.00,288.00 L266.00,284.00 L275.00,284.00 L276.00,283.00 L276.00,271.00 L278.00,269.00 L287.00,269.00 L288.00,267.00 L285.00,265.00 L278.00,266.00 L276.00,264.00 L276.00,262.00 L280.00,260.00 L278.00,261.00 L276.00,258.00 L271.00,257.00 L269.00,258.00 L263.00,265.00 L261.00,265.00 L261.00,268.00 L262.00,269.00 L268.00,269.00 L269.00,270.00 L268.00,273.00 L247.00,273.00 L244.00,277.00 L238.00,277.00 L236.00,276.00 L234.00,278.00 L234.00,283.00 L233.00,284.00 L225.00,284.00 L223.00,281.00 L219.00,281.00 L214.00,288.00 L208.00,288.00 L207.00,289.00 L207.00,295.00 L205.00,296.00 L202.00,300.00 L185.00,300.00 L182.00,303.00 L178.00,303.00 L176.00,300.00 L170.00,300.00 L165.00,304.00 L165.00,306.00 L163.00,308.00 L156.00,308.00 L155.00,307.00 L154.00,308.00 L150.00,308.00 L149.00,307.00 L144.00,308.00 L141.00,304.00 L138.00,302.00 L137.00,305.00 L134.00,305.00 L132.00,302.00 L135.00,299.00 L137.00,300.00 L136.00,299.00 L132.00,300.00 L130.00,298.00 L130.00,286.00 L132.00,284.00 L134.00,286.00 L132.00,284.00 L127.00,286.00 L126.00,285.00 L126.00,279.00 L122.00,275.00 L122.00,257.00 L121.00,256.00 L122.00,248.00 L118.00,245.00 L118.00,243.00 L119.00,242.00 L122.00,242.00 L123.00,245.00 L125.00,245.00 L130.00,240.00 L129.00,232.00 L149.00,213.00 L148.00,205.00 L150.00,203.00 L160.00,203.00 L160.00,200.00 L155.00,200.00 L152.00,197.00 L152.00,194.00 L156.00,191.00 L157.00,189.00 L156.00,186.00 L161.00,183.00 L163.00,184.00 L167.00,184.00 L168.00,183.00 L168.00,181.00 L164.00,178.00 L164.00,175.00 L166.00,172.00 L178.00,173.00 L180.00,171.00 L180.00,170.00 L174.00,169.00 L172.00,167.00 L174.00,164.00 L178.00,164.00 L179.00,165.00 L182.00,165.00 L183.00,164.00 L182.00,161.00 L175.00,162.00 L172.00,160.00 L172.00,158.00 L174.00,156.00 L179.00,156.00 L182.00,153.00 L190.00,153.00 L191.00,152.00 L191.00,147.00 L195.00,144.00 L195.00,139.00 L197.00,138.00 L205.00,129.00 L209.00,130.00 L211.00,128.00 L211.00,124.00 L220.00,115.00 L226.00,114.00 L232.00,107.00 L240.00,107.00 L249.00,99.00 Z" fill="#6f8cff"/>
  <path d="M95.00,328.00 L93.00,328.00 L92.00,330.00 L94.00,331.00 Z" fill="#f7f9ff"/>
  <path d="M330.00,312.00 L328.00,313.00 L328.00,315.00 L330.00,316.00 L331.00,315.00 Z" fill="#f7f9ff"/>
  <path d="M134.00,301.00 L134.00,303.00 L136.00,304.00 L137.00,302.00 Z" fill="#f7f9ff"/>
  <path d="M223.00,285.00 L224.00,288.00 L227.00,287.00 L225.00,285.00 Z" fill="#f7f9ff"/>
  <path d="M219.00,209.00 L217.00,208.00 L216.00,211.00 L218.00,211.00 Z" fill="#f7f9ff"/>
  <path d="M135.00,189.00 L135.00,192.00 L137.00,192.00 L138.00,190.00 Z" fill="#f7f9ff"/>
  <path d="M286.00,173.00 L284.00,175.00 L286.00,176.00 L289.00,180.00 L291.00,180.00 L291.00,178.00 L289.00,177.00 Z" fill="#f7f9ff"/>
  <path d="M149.00,154.00 L146.00,155.00 L146.00,156.00 L149.00,157.00 Z" fill="#f7f9ff"/>
  <path d="M301.00,104.00 L301.00,106.00 L303.00,106.00 L303.00,104.00 Z" fill="#f7f9ff"/>
  <path d="M208.00,104.00 L207.00,106.00 L210.00,107.00 L210.00,105.00 Z" fill="#f7f9ff"/>
  <path d="M290.00,81.00 L290.00,83.00 L295.00,83.00 L298.00,87.00 L297.00,93.00 L299.00,95.00 L301.00,94.00 L306.00,94.00 L307.00,93.00 L307.00,90.00 L303.00,87.00 L303.00,82.00 L302.00,81.00 Z" fill="#f7f9ff"/>
  <path d="M278.00,77.00 L275.00,77.00 L272.00,81.00 L267.00,81.00 L266.00,82.00 L271.00,86.00 L270.00,91.00 L267.00,93.00 L264.00,91.00 L264.00,86.00 L263.00,85.00 L255.00,85.00 L255.00,90.00 L251.00,93.00 L251.00,98.00 L248.00,100.00 L241.00,108.00 L232.00,108.00 L225.00,116.00 L220.00,116.00 L220.00,117.00 L212.00,124.00 L212.00,129.00 L210.00,131.00 L205.00,131.00 L204.00,133.00 L196.00,140.00 L197.00,144.00 L193.00,147.00 L192.00,149.00 L193.00,152.00 L191.00,154.00 L182.00,154.00 L180.00,157.00 L173.00,159.00 L174.00,160.00 L183.00,160.00 L185.00,163.00 L183.00,166.00 L174.00,166.00 L173.00,167.00 L174.00,168.00 L179.00,168.00 L181.00,170.00 L181.00,172.00 L178.00,174.00 L172.00,174.00 L171.00,173.00 L167.00,173.00 L166.00,174.00 L165.00,178.00 L170.00,182.00 L168.00,185.00 L159.00,185.00 L158.00,186.00 L158.00,190.00 L154.00,193.00 L153.00,195.00 L154.00,198.00 L156.00,199.00 L159.00,198.00 L162.00,202.00 L159.00,205.00 L151.00,204.00 L150.00,205.00 L150.00,214.00 L131.00,232.00 L131.00,241.00 L129.00,242.00 L125.00,247.00 L123.00,247.00 L121.00,243.00 L120.00,243.00 L119.00,245.00 L123.00,247.00 L123.00,275.00 L127.00,278.00 L127.00,284.00 L133.00,283.00 L136.00,287.00 L140.00,287.00 L143.00,291.00 L147.00,291.00 L150.00,287.00 L155.00,287.00 L158.00,283.00 L163.00,283.00 L166.00,280.00 L168.00,280.00 L170.00,283.00 L194.00,283.00 L195.00,282.00 L194.00,280.00 L195.00,277.00 L197.00,276.00 L208.00,264.00 L214.00,264.00 L217.00,268.00 L221.00,268.00 L221.00,266.00 L218.00,264.00 L218.00,262.00 L220.00,260.00 L233.00,261.00 L236.00,257.00 L241.00,257.00 L242.00,256.00 L256.00,256.00 L259.00,257.00 L260.00,255.00 L258.00,254.00 L256.00,251.00 L255.00,251.00 L253.00,254.00 L250.00,254.00 L249.00,253.00 L249.00,250.00 L253.00,248.00 L258.00,241.00 L264.00,241.00 L267.00,245.00 L271.00,245.00 L272.00,244.00 L272.00,239.00 L274.00,237.00 L283.00,237.00 L285.00,233.00 L287.00,233.00 L290.00,237.00 L292.00,237.00 L291.00,231.00 L294.00,229.00 L297.00,231.00 L297.00,234.00 L303.00,233.00 L305.00,235.00 L305.00,240.00 L302.00,243.00 L298.00,243.00 L297.00,245.00 L293.00,248.00 L293.00,253.00 L291.00,255.00 L289.00,255.00 L289.00,261.00 L288.00,262.00 L286.00,262.00 L284.00,259.00 L282.00,259.00 L280.00,262.00 L277.00,263.00 L277.00,264.00 L286.00,264.00 L289.00,266.00 L289.00,269.00 L288.00,270.00 L278.00,270.00 L277.00,272.00 L278.00,274.00 L278.00,282.00 L277.00,284.00 L273.00,286.00 L272.00,285.00 L267.00,285.00 L266.00,287.00 L262.00,290.00 L262.00,295.00 L258.00,298.00 L258.00,303.00 L256.00,304.00 L253.00,308.00 L250.00,308.00 L249.00,307.00 L249.00,301.00 L247.00,301.00 L246.00,302.00 L246.00,307.00 L243.00,309.00 L243.00,314.00 L241.00,316.00 L235.00,312.00 L234.00,313.00 L235.00,318.00 L232.00,320.00 L229.00,324.00 L224.00,324.00 L224.00,325.00 L220.00,328.00 L219.00,330.00 L220.00,332.00 L220.00,337.00 L217.00,339.00 L214.00,343.00 L201.00,343.00 L201.00,344.00 L192.00,352.00 L192.00,357.00 L190.00,358.00 L187.00,362.00 L182.00,362.00 L179.00,366.00 L175.00,366.00 L170.00,370.00 L167.00,374.00 L158.00,374.00 L156.00,378.00 L147.00,378.00 L144.00,382.00 L139.00,382.00 L136.00,386.00 L132.00,385.00 L131.00,387.00 L127.00,390.00 L125.00,389.00 L104.00,389.00 L102.00,390.00 L100.00,389.00 L97.00,385.00 L94.00,386.00 L82.00,385.00 L80.00,388.00 L77.00,390.00 L72.00,390.00 L71.00,389.00 L69.00,391.00 L69.00,396.00 L66.00,398.00 L66.00,403.00 L64.00,405.00 L61.00,405.00 L61.00,414.00 L63.00,414.00 L66.00,417.00 L66.00,422.00 L67.00,422.00 L74.00,430.00 L79.00,430.00 L82.00,434.00 L87.00,434.00 L90.00,438.00 L97.00,437.00 L100.00,439.00 L100.00,442.00 L109.00,442.00 L109.00,440.00 L112.00,437.00 L114.00,437.00 L116.00,439.00 L116.00,442.00 L121.00,442.00 L121.00,440.00 L124.00,437.00 L132.00,437.00 L133.00,438.00 L136.00,437.00 L139.00,434.00 L155.00,434.00 L162.00,426.00 L171.00,426.00 L171.00,420.00 L173.00,418.00 L175.00,418.00 L177.00,421.00 L179.00,422.00 L180.00,420.00 L179.00,419.00 L179.00,412.00 L182.00,410.00 L185.00,412.00 L185.00,418.00 L187.00,418.00 L190.00,414.00 L197.00,415.00 L199.00,413.00 L198.00,412.00 L198.00,409.00 L200.00,407.00 L205.00,407.00 L214.00,399.00 L214.00,397.00 L212.00,397.00 L210.00,395.00 L210.00,393.00 L212.00,391.00 L214.00,391.00 L216.00,395.00 L218.00,395.00 L220.00,391.00 L225.00,391.00 L226.00,390.00 L225.00,386.00 L228.00,384.00 L231.00,380.00 L234.00,380.00 L237.00,384.00 L240.00,384.00 L242.00,380.00 L241.00,374.00 L243.00,372.00 L248.00,372.00 L249.00,370.00 L253.00,367.00 L252.00,363.00 L255.00,361.00 L258.00,357.00 L263.00,357.00 L264.00,356.00 L264.00,351.00 L267.00,349.00 L270.00,345.00 L275.00,345.00 L276.00,343.00 L280.00,340.00 L280.00,335.00 L282.00,334.00 L289.00,326.00 L294.00,326.00 L295.00,325.00 L295.00,320.00 L297.00,318.00 L306.00,318.00 L307.00,317.00 L307.00,314.00 L310.00,311.00 L310.00,309.00 L313.00,306.00 L315.00,306.00 L314.00,301.00 L317.00,299.00 L324.00,291.00 L329.00,291.00 L330.00,290.00 L330.00,286.00 L329.00,285.00 L330.00,281.00 L334.00,278.00 L333.00,275.00 L334.00,273.00 L338.00,270.00 L337.00,263.00 L345.00,256.00 L345.00,243.00 L349.00,240.00 L349.00,235.00 L353.00,232.00 L353.00,220.00 L357.00,217.00 L357.00,209.00 L353.00,207.00 L353.00,201.00 L352.00,201.00 L349.00,197.00 L344.00,197.00 L341.00,193.00 L332.00,193.00 L330.00,191.00 L330.00,186.00 L329.00,185.00 L316.00,185.00 L313.00,181.00 L306.00,181.00 L305.00,183.00 L298.00,189.00 L290.00,189.00 L289.00,190.00 L290.00,197.00 L288.00,200.00 L285.00,200.00 L283.00,198.00 L283.00,193.00 L278.00,193.00 L278.00,194.00 L274.00,197.00 L274.00,203.00 L273.00,204.00 L270.00,204.00 L267.00,200.00 L260.00,200.00 L253.00,208.00 L251.00,208.00 L248.00,204.00 L246.00,205.00 L245.00,208.00 L240.00,208.00 L237.00,212.00 L236.00,212.00 L233.00,208.00 L231.00,208.00 L231.00,214.00 L229.00,216.00 L224.00,216.00 L223.00,215.00 L220.00,216.00 L217.00,220.00 L213.00,220.00 L209.00,216.00 L205.00,216.00 L205.00,217.00 L201.00,220.00 L201.00,222.00 L199.00,224.00 L197.00,224.00 L197.00,230.00 L193.00,232.00 L190.00,229.00 L191.00,220.00 L194.00,218.00 L195.00,216.00 L194.00,213.00 L195.00,210.00 L198.00,207.00 L199.00,204.00 L202.00,202.00 L202.00,197.00 L205.00,195.00 L208.00,191.00 L214.00,187.00 L214.00,186.00 L207.00,180.00 L207.00,177.00 L209.00,175.00 L213.00,175.00 L217.00,179.00 L222.00,179.00 L224.00,180.00 L225.00,178.00 L223.00,177.00 L221.00,174.00 L225.00,171.00 L227.00,168.00 L230.00,168.00 L231.00,167.00 L236.00,169.00 L237.00,168.00 L237.00,163.00 L233.00,161.00 L233.00,158.00 L235.00,156.00 L239.00,156.00 L240.00,157.00 L246.00,156.00 L247.00,157.00 L249.00,154.00 L268.00,136.00 L268.00,131.00 L270.00,129.00 L279.00,129.00 L282.00,125.00 L287.00,125.00 L290.00,121.00 L295.00,121.00 L296.00,122.00 L303.00,117.00 L302.00,116.00 L293.00,116.00 L291.00,114.00 L291.00,112.00 L293.00,110.00 L298.00,110.00 L299.00,108.00 L284.00,108.00 L283.00,109.00 L280.00,106.00 L280.00,104.00 L285.00,99.00 L291.00,98.00 L291.00,89.00 L289.00,90.00 L289.00,94.00 L287.00,96.00 L285.00,96.00 L283.00,94.00 L283.00,82.00 Z" fill="#f7f9ff"/>
</svg>
